<svg width="1600" height="906" viewBox="0 0 1600 906" fill="none" xmlns="http://www.w3.org/2000/svg">
<path d="M0 0H1920V760H0V0Z" fill="#4229EA"/>
<path d="M290.599 807.55L290.598 807.548L-85.3156 247.376C-152.895 146.063 -125.863 9.29215 -24.4952 -58.2486C76.8748 -125.791 212.031 -98.7737 279.609 0.848801L657.212 562.706C723.104 664.023 697.761 799.105 594.7 868.337C493.331 935.878 358.178 908.861 290.599 807.55Z" stroke="white" stroke-opacity="0.2"/>
<path d="M118.822 673.993C118.822 801.851 15.1732 905.5 -112.684 905.5C-240.542 905.5 -344.191 801.851 -344.191 673.993C-344.191 546.135 -240.542 442.486 -112.684 442.486C15.1732 442.486 118.822 546.135 118.822 673.993Z" stroke="white" stroke-opacity="0.2"/>
</svg>
