<svg width="50" height="48" viewBox="0 0 50 48" fill="none" xmlns="http://www.w3.org/2000/svg">
<g clip-path="url(#clip0_1_166)">
<path d="M22.2 13L24.4 17.5L29.3 18.2L25.8 21.7L26.6 26.6L22.2 24.3L17.8 26.6L18.6 21.7L15 18.2L20 17.5L22.2 13Z" fill="#1DED9D"/>
<path d="M36.7 19.2C36.7 24.3 33.5 28.7 28.9 30.4L24.7 39L20.2 30.3C15.8 28.5 12.7 24.2 12.7 19.2C12.7 12.6 18.1 7.20001 24.7 7.20001C29.2 7.20001 33.1 9.70001 35.2 13.3" stroke="#6E1EED" stroke-width="1.9596" stroke-miterlimit="10" stroke-linecap="round" stroke-linejoin="round"/>
<path d="M38.1 14.2C37.3 15.4 36.2 16.5 34.9 17.4" stroke="#6E1EED" stroke-width="1.9596" stroke-miterlimit="10" stroke-linecap="round" stroke-linejoin="round"/>
<path d="M25 11.3L27.2 15.8L32.2 16.5L28.6 20L29.4 24.9L25 22.6L20.6 24.9L21.4 20L17.9 16.5L22.8 15.8L25 11.3Z" stroke="#6E1EED" stroke-width="1.9596" stroke-miterlimit="10" stroke-linecap="round" stroke-linejoin="round"/>
<path d="M7.69999 12.5L5.29999 10.8" stroke="#6E1EED" stroke-width="1.9596" stroke-miterlimit="10" stroke-linecap="round" stroke-linejoin="round"/>
<path d="M6.59996 32.5L4.39996 34.5" stroke="#6E1EED" stroke-width="1.9596" stroke-miterlimit="10" stroke-linecap="round" stroke-linejoin="round"/>
<path d="M8.49999 22.6H0.799988" stroke="#6E1EED" stroke-width="1.9596" stroke-miterlimit="10" stroke-linecap="round" stroke-linejoin="round"/>
<path d="M46.4 12.5L48.8 10.8" stroke="#6E1EED" stroke-width="1.9596" stroke-miterlimit="10" stroke-linecap="round" stroke-linejoin="round"/>
<path d="M46.6 32.5L48.8 34.5" stroke="#6E1EED" stroke-width="1.9596" stroke-miterlimit="10" stroke-linecap="round" stroke-linejoin="round"/>
<path d="M41 22.6H48.8" stroke="#6E1EED" stroke-width="1.9596" stroke-miterlimit="10" stroke-linecap="round" stroke-linejoin="round"/>
<path d="M16.5 5.89999L12.9 0.799988" stroke="#6E1EED" stroke-width="1.9596" stroke-miterlimit="10" stroke-linecap="round" stroke-linejoin="round"/>
<path d="M32.3 5.59999L36.6 0.799988" stroke="#6E1EED" stroke-width="1.9596" stroke-miterlimit="10" stroke-linecap="round" stroke-linejoin="round"/>
<path d="M24.7 3.49999V0.799988" stroke="#6E1EED" stroke-width="1.9596" stroke-miterlimit="10" stroke-linecap="round" stroke-linejoin="round"/>
<path d="M33 42L36.6 47.1" stroke="#6E1EED" stroke-width="1.9596" stroke-miterlimit="10" stroke-linecap="round" stroke-linejoin="round"/>
<path d="M17.2 42.3L12.9 47.1" stroke="#6E1EED" stroke-width="1.9596" stroke-miterlimit="10" stroke-linecap="round" stroke-linejoin="round"/>
<path d="M24.8 44.4V47.1" stroke="#6E1EED" stroke-width="1.9596" stroke-miterlimit="10" stroke-linecap="round" stroke-linejoin="round"/>
</g>
<defs>
<clipPath id="clip0_1_166">
<rect width="49.5" height="47.9" fill="white"/>
</clipPath>
</defs>
</svg>
