<svg width="48" height="48" viewBox="0 0 48 48" fill="none" xmlns="http://www.w3.org/2000/svg">
<g clip-path="url(#clip0_1_117)">
<path d="M10.3758 20.1697L8.33948 17.9394C13.188 17.1637 17.3577 13.5758 19.491 8.53336C21.6243 13.5758 25.794 17.0667 30.6425 17.9394L28.6061 20.3637" fill="#1DED9D"/>
<path d="M18.835 19L24.0003 28H6.06807L1.00027 19H18.835Z" stroke="#6E1EED" stroke-width="2" stroke-miterlimit="10" stroke-linecap="round" stroke-linejoin="round"/>
<path d="M38.7052 19.4286L29.1847 19L24.0003 28H42.2872L47.0003 19.5357H43.8896" stroke="#6E1EED" stroke-width="2" stroke-miterlimit="10" stroke-linecap="round" stroke-linejoin="round"/>
<path d="M5.42979 33.8424V27.5393H24.1449V47.3212H5.42979V41.5999" stroke="#6E1EED" stroke-width="2" stroke-miterlimit="10" stroke-linecap="round" stroke-linejoin="round"/>
<path d="M42.8596 27.5393H24.1444V47.3212H42.8596V27.5393Z" stroke="#6E1EED" stroke-width="2" stroke-miterlimit="10" stroke-linecap="round" stroke-linejoin="round"/>
<path d="M15.009 18.9091L13.0003 16.8182C17.7829 16.0909 21.8959 12.7273 24.0003 8.00003C26.1046 12.7273 30.2177 16 35.0003 16.8182L32.9916 19" stroke="#6E1EED" stroke-width="2" stroke-miterlimit="10" stroke-linecap="round" stroke-linejoin="round"/>
<path d="M11.442 12.0241L7.66016 9.9877" stroke="#6E1EED" stroke-width="2" stroke-miterlimit="10" stroke-linecap="round" stroke-linejoin="round"/>
<path d="M16.8729 6.78757L14.5456 3.10272" stroke="#6E1EED" stroke-width="2" stroke-miterlimit="10" stroke-linecap="round" stroke-linejoin="round"/>
<path d="M24.0003 4.10306V1.00003" stroke="#6E1EED" stroke-width="2" stroke-miterlimit="10" stroke-linecap="round" stroke-linejoin="round"/>
<path d="M33.0669 3.10272L31.3215 6.59363" stroke="#6E1EED" stroke-width="2" stroke-miterlimit="10" stroke-linecap="round" stroke-linejoin="round"/>
<path d="M40.2424 9.89078L36.4605 12.1211" stroke="#6E1EED" stroke-width="2" stroke-miterlimit="10" stroke-linecap="round" stroke-linejoin="round"/>
<path d="M6 37L5 38" stroke="#6E1EED" stroke-width="2" stroke-miterlimit="10" stroke-linecap="round" stroke-linejoin="round"/>
</g>
<defs>
<clipPath id="clip0_1_117">
<rect width="48" height="48" fill="white"/>
</clipPath>
</defs>
</svg>
