<svg width="48" height="48" viewBox="0 0 48 48" fill="none" xmlns="http://www.w3.org/2000/svg">
<g clip-path="url(#clip0_1_146)">
<path d="M22.8653 37L14.0003 32.6586V20L23.0003 23.7473L22.8653 37Z" fill="#1DED9D"/>
<path d="M2.21902 10.4V35.392L21.2776 45.0112V18.6708L41.6847 10.3101L22.1766 2.21924L2.21902 10.4Z" stroke="#6E1EED" stroke-width="2" stroke-miterlimit="10" stroke-linecap="round" stroke-linejoin="round"/>
<path d="M25.773 42.9435L21.278 45.0001V18.6707L41.6851 10.3101V24.8738" stroke="#6E1EED" stroke-width="2" stroke-miterlimit="10" stroke-linecap="round" stroke-linejoin="round"/>
<path d="M44.7892 35.6616C44.7892 40.696 40.5639 44.8313 35.4397 44.8313C30.3154 44.8313 26.0003 40.696 26.0003 35.6616C26.0003 30.6273 30.2255 26.4919 35.3498 26.4919C37.2376 26.4919 39.0356 27.0313 40.5639 28.0202" stroke="#6E1EED" stroke-width="2" stroke-miterlimit="10" stroke-linecap="round" stroke-linejoin="round"/>
<path d="M32.1555 33.8637L36.7403 37.9092L44.2918 29.4587" stroke="#6E1EED" stroke-width="2" stroke-miterlimit="10" stroke-linecap="round" stroke-linejoin="round"/>
<path d="M16.1536 16.4233L21.2779 18.6708" stroke="#6E1EED" stroke-width="2" stroke-miterlimit="10" stroke-linecap="round" stroke-linejoin="round"/>
<path d="M11.3892 12.8273L12.4679 15.794" stroke="#6E1EED" stroke-width="2" stroke-miterlimit="10" stroke-linecap="round" stroke-linejoin="round"/>
<path d="M2.21928 10.4001L8.42231 13.0971" stroke="#6E1EED" stroke-width="2" stroke-miterlimit="10" stroke-linecap="round" stroke-linejoin="round"/>
</g>
<defs>
<clipPath id="clip0_1_146">
<rect width="44.5" height="44.5" fill="white" transform="translate(1.5 1.5)"/>
</clipPath>
</defs>
</svg>
