<svg width="49" height="49" viewBox="0 0 49 49" fill="none" xmlns="http://www.w3.org/2000/svg">
<g clip-path="url(#clip0_1_119)">
<path d="M18.6263 24.0151C22.1436 24.0151 24.9949 21.1638 24.9949 17.6465C24.9949 14.1291 22.1436 11.2778 18.6263 11.2778C15.1089 11.2778 12.2576 14.1291 12.2576 17.6465C12.2576 21.1638 15.1089 24.0151 18.6263 24.0151Z" fill="#1DED9D"/>
<path d="M24.7992 24.1131C30.8057 24.1131 35.6749 19.2 35.6749 13.1394C35.6749 7.07873 30.8057 2.16562 24.7992 2.16562C18.7927 2.16562 13.9234 7.07873 13.9234 13.1394C13.9234 19.2 18.7927 24.1131 24.7992 24.1131Z" stroke="#6E1EED" stroke-width="1.9596" stroke-miterlimit="10" stroke-linecap="round" stroke-linejoin="round"/>
<path d="M37.8587 37.2707C39.5362 37.2707 40.896 35.867 40.896 34.1354C40.896 32.4037 39.5362 31 37.8587 31C36.1812 31 34.8213 32.4037 34.8213 34.1354C34.8213 35.867 36.1812 37.2707 37.8587 37.2707Z" stroke="#6E1EED" stroke-width="1.9596" stroke-miterlimit="10" stroke-linecap="round" stroke-linejoin="round"/>
<path d="M31 44.2276C31 40.4064 34.0374 37.271 37.8586 37.271C41.6798 37.271 44.7172 40.4064 44.7172 44.2276" stroke="#6E1EED" stroke-width="1.9596" stroke-miterlimit="10" stroke-linecap="round" stroke-linejoin="round"/>
<path d="M12.9563 37.3403C14.6338 37.3403 15.9937 35.9365 15.9937 34.2049C15.9937 32.4733 14.6338 31.0696 12.9563 31.0696C11.2788 31.0696 9.91895 32.4733 9.91895 34.2049C9.91895 35.9365 11.2788 37.3403 12.9563 37.3403Z" stroke="#6E1EED" stroke-width="1.9596" stroke-miterlimit="10" stroke-linecap="round" stroke-linejoin="round"/>
<path d="M6 44.2971C6 40.4759 9.03737 37.3406 12.8586 37.3406C16.6798 37.3406 19.7172 40.4759 19.7172 44.2971" stroke="#6E1EED" stroke-width="1.9596" stroke-miterlimit="10" stroke-linecap="round" stroke-linejoin="round"/>
<path d="M24.7992 12.6495C26.4767 12.6495 27.8366 11.2457 27.8366 9.51414C27.8366 7.78253 26.4767 6.37878 24.7992 6.37878C23.1217 6.37878 21.7618 7.78253 21.7618 9.51414C21.7618 11.2457 23.1217 12.6495 24.7992 12.6495Z" stroke="#6E1EED" stroke-width="1.9596" stroke-miterlimit="10" stroke-linecap="round" stroke-linejoin="round"/>
<path d="M18.1362 21.2716C18.0382 20.6838 17.9402 20.1939 17.9402 19.606C17.9402 15.7848 20.9776 12.6494 24.7988 12.6494C28.62 12.6494 31.6574 15.7848 31.6574 19.606C31.6574 20.1939 31.5594 20.7817 31.4614 21.2716" stroke="#6E1EED" stroke-width="1.9596" stroke-miterlimit="10" stroke-linecap="round" stroke-linejoin="round"/>
<path d="M21.0758 23.5253L15.4999 26.0001" stroke="#6E1EED" stroke-width="1.9596" stroke-miterlimit="10" stroke-linecap="round" stroke-linejoin="round"/>
<path d="M28.4243 23.5253L34.9889 26.5625" stroke="#6E1EED" stroke-width="1.9596" stroke-miterlimit="10" stroke-linecap="round" stroke-linejoin="round"/>
<path d="M23.5556 34.7202C23.7515 35.4061 23.7515 36.1899 23.7515 36.9737C23.7515 43.0485 18.8525 47.9475 12.8758 47.9475C6.89899 47.9475 2 43.0485 2 36.9737C2 30.899 6.89899 26 12.8758 26C15.8152 26 18.5586 27.1758 20.5182 29.1354" stroke="#6E1EED" stroke-width="1.9596" stroke-miterlimit="10" stroke-linecap="round" stroke-linejoin="round"/>
<path d="M19.8022 32.9313C20.684 32.3434 21.6638 31.8535 22.7416 31.5595" stroke="#6E1EED" stroke-width="1.9596" stroke-miterlimit="10" stroke-linecap="round" stroke-linejoin="round"/>
<path d="M46.6484 31.1929C47.7261 32.8586 48.314 34.9162 48.314 36.9737C48.314 43.0485 43.415 47.9475 37.4383 47.9475C31.4615 47.9475 26.5625 43.0485 26.5625 36.9737C26.5625 30.899 31.4615 26 37.4383 26C38.908 26 40.3777 26.2939 41.6514 26.8818" stroke="#6E1EED" stroke-width="1.9596" stroke-miterlimit="10" stroke-linecap="round" stroke-linejoin="round"/>
</g>
<defs>
<clipPath id="clip0_1_119">
<rect width="48.5" height="48.5" fill="white" transform="translate(0.5 0.5)"/>
</clipPath>
</defs>
</svg>
