<svg width="115" height="30" viewBox="0 0 115 30" fill="none" xmlns="http://www.w3.org/2000/svg">
<path d="M5.76 23.56H17.76V29H0.0400002V0.999998H5.76V23.56ZM23.8594 4.68C26.6594 1.90667 30.126 0.52 34.2594 0.52C38.3927 0.52 41.8594 1.90667 44.6594 4.68C47.4594 7.45333 48.8594 10.8933 48.8594 15C48.8594 19.1067 47.4594 22.5467 44.6594 25.32C41.8594 28.0933 38.3927 29.48 34.2594 29.48C30.126 29.48 26.6594 28.0933 23.8594 25.32C21.086 22.5467 19.6994 19.1067 19.6994 15C19.6994 10.8933 21.086 7.45333 23.8594 4.68ZM40.5394 8.52C38.886 6.81333 36.7927 5.96 34.2594 5.96C31.726 5.96 29.6194 6.81333 27.9394 8.52C26.286 10.2267 25.4594 12.3867 25.4594 15C25.4594 17.6133 26.286 19.7733 27.9394 21.48C29.6194 23.1867 31.726 24.04 34.2594 24.04C36.7927 24.04 38.886 23.1867 40.5394 21.48C42.2194 19.7733 43.0594 17.6133 43.0594 15C43.0594 12.3867 42.2194 10.2267 40.5394 8.52ZM65.4319 13.8H80.7519V29H75.8719V24.28C75.2052 25.8267 74.0319 27.08 72.3519 28.04C70.6985 29 68.7252 29.48 66.4319 29.48C62.4852 29.48 59.1785 28.12 56.5119 25.4C53.8452 22.6533 52.5119 19.2 52.5119 15.04C52.5119 10.8533 53.8719 7.38667 56.5919 4.64C59.3385 1.89333 62.8052 0.52 66.9919 0.52C70.2985 0.52 73.1652 1.42667 75.5919 3.24C78.0452 5.02667 79.6852 7.37333 80.5119 10.28H74.3919C73.7252 8.92 72.7385 7.86666 71.4319 7.12C70.1519 6.34667 68.6585 5.96 66.9519 5.96C64.3652 5.96 62.2719 6.81333 60.6719 8.52C59.0719 10.2267 58.2719 12.4267 58.2719 15.12C58.2719 17.7333 59.0319 19.9067 60.5519 21.64C62.0985 23.3467 64.2052 24.2 66.8719 24.2C68.8185 24.2 70.5119 23.7067 71.9519 22.72C73.3919 21.7333 74.3519 20.36 74.8319 18.6H65.4319V13.8ZM89.6016 4.68C92.4016 1.90667 95.8682 0.52 100.002 0.52C104.135 0.52 107.602 1.90667 110.402 4.68C113.202 7.45333 114.602 10.8933 114.602 15C114.602 19.1067 113.202 22.5467 110.402 25.32C107.602 28.0933 104.135 29.48 100.002 29.48C95.8682 29.48 92.4016 28.0933 89.6016 25.32C86.8282 22.5467 85.4416 19.1067 85.4416 15C85.4416 10.8933 86.8282 7.45333 89.6016 4.68ZM106.282 8.52C104.628 6.81333 102.535 5.96 100.002 5.96C97.4682 5.96 95.3616 6.81333 93.6816 8.52C92.0282 10.2267 91.2016 12.3867 91.2016 15C91.2016 17.6133 92.0282 19.7733 93.6816 21.48C95.3616 23.1867 97.4682 24.04 100.002 24.04C102.535 24.04 104.628 23.1867 106.282 21.48C107.962 19.7733 108.802 17.6133 108.802 15C108.802 12.3867 107.962 10.2267 106.282 8.52Z" fill="white"/>
</svg>
