<svg width="157" height="384" viewBox="0 0 157 384" fill="none" xmlns="http://www.w3.org/2000/svg">
<path d="M-91.5644 216.636C-68.5605 231.837 -37.8887 225.757 -22.5527 202.955L62.5617 77.1677C77.8976 54.3664 71.7633 23.5846 48.7594 8.38367C25.7555 -6.81723 -4.91641 -0.736871 -20.2523 21.6845L-105.75 147.852C-120.703 170.653 -114.952 201.055 -91.5644 216.636C-91.9478 216.636 -91.9478 216.636 -91.5644 216.636Z" fill="#4229EA"/>
<path d="M105 225C76.2812 225 53 201.719 53 173C53 144.281 76.2812 121 105 121C133.719 121 157 144.281 157 173C157 201.719 133.719 225 105 225Z" fill="#DCDFE2"/>
<path d="M-17.6567 358.106C-15.1254 348.658 -5.89345 342.924 2.96332 345.297C11.8201 347.67 16.9478 357.252 14.4165 366.7C11.8851 376.147 2.65317 381.882 -6.2036 379.508C-15.0604 377.135 -20.1881 367.553 -17.6567 358.106Z" fill="#1DED9D"/>
</svg>
