<svg width="161" height="384" viewBox="0 0 161 384" fill="none" xmlns="http://www.w3.org/2000/svg">
<path d="M248.564 216.636C225.561 231.837 194.889 225.757 179.553 202.955L94.4383 77.1677C79.1024 54.3664 85.2367 23.5846 108.241 8.38367C131.245 -6.81723 161.916 -0.736871 177.252 21.6845L262.75 147.852C277.703 170.653 271.952 201.055 248.564 216.636C248.948 216.636 248.948 216.636 248.564 216.636Z" fill="#4229EA"/>
<path d="M52 225C80.7188 225 104 201.719 104 173C104 144.281 80.7188 121 52 121C23.2812 121 0 144.281 0 173C0 201.719 23.2812 225 52 225Z" fill="#DCDFE2"/>
<path d="M174.657 358.106C172.125 348.658 162.893 342.924 154.037 345.297C145.18 347.67 140.052 357.252 142.584 366.7C145.115 376.147 154.347 381.882 163.204 379.508C172.06 377.135 177.188 367.553 174.657 358.106Z" fill="#1DED9D"/>
</svg>
